<svg version="1.1" xmlns="http://www.w3.org/2000/svg" xmlns:xlink="http://www.w3.org/1999/xlink" width="360" height="640" viewBox="399.5,37,360,640"><g fill="none" fill-rule="nonzero" stroke="none" stroke-width="1" stroke-linecap="butt" stroke-linejoin="miter" stroke-miterlimit="10" stroke-dasharray="" stroke-dashoffset="0" font-family="none" font-weight="none" font-size="none" text-anchor="none" style="mix-blend-mode: normal"><path d="M399.5,677v-640h360v640z" fill="#f0eee6"/><path d="M566.4,528.6c-23.2,-13.2 -52.5,-28.6 -64.3,-54.1" fill="none"/><path d="M577.4,602.3c32.5,-40.2 58.3,-72.2 63.4,-124.6" fill="none"/><path d="M574.6,572.6c38,-31.9 83.3,-76.3 79,-130.6" fill="none"/><path d="M530,506.2c-1.5,-7.5 -4,-15.9 -9.9,-21.2" fill="none"/><path d="M547.8,517.9c-12.5,4.8 -28.7,9.4 -41,1.7" fill="none"/><path d="M619.2,544.9c18.1,-6.9 35.7,-16.5 47.4,-32.4" fill="none"/><path d="M599.5,574.4c-0.2,-20.8 -0.9,-45.7 10.7,-64.1" fill="none"/><path d="M446,386.6c9.7,-33.9 39.5,-74.7 74.7,-74.7c35.2,0 74.7,39.5 74.7,74.7c0,35.2 -47.6,52.2 -74.7,74.7c-3.5,2.9 -9.7,-3.5 -13.7,-1.3c-2.4,1.4 3.2,5.8 1.7,8.1c-5,7.8 -10.4,19.7 -19.7,19.7c-49.1,0 -5.9,-31.2 -7.8,-37.8c-6.7,-23.3 -41.9,-40.2 -35.3,-63.5zM585.4,440.1c0,-77.3 47.2,-21.3 63.6,-21.6c21.9,-0.5 78.7,-64.2 78.7,29.9c0,98.5 -69,24.8 -85.5,20c-7.2,-2.1 -14.6,10.5 -21.4,7.2c-15,-7.4 -35.5,-18.7 -35.5,-35.5zM642,524.4c0,-21.3 31.9,-21.3 31.9,0c0,7.5 -8.4,16 -16,16c-7.5,0 -16,-8.4 -16,-16z" fill="#ffa500"/><path d="M446,386.6c2.1,-31.6 36.9,-73.9 74.7,-74.7c37.8,-0.8 78.7,39.7 74.7,74.7c-4,35 -52.8,64.4 -74.7,74.7c-21.9,10.3 -16.9,1.5 -13.7,-1.3c3.2,-2.8 4.6,0.4 1.7,8.1c-2.9,7.7 -10,20 -19.7,19.7c-9.7,-0.3 -22,-13 -19.7,-19.7c2.3,-6.7 19.3,-7.2 11.9,-18.1c-7.4,-10.9 -37.4,-31.9 -35.3,-63.5zM585.4,440.1c-0.6,-17 21.3,-34.5 35.5,-35.5c14.2,-1 20.6,14.5 28.1,13.8c7.5,-0.6 16,-17.3 33.7,-15.1c17.7,2.2 44.6,23.2 45.1,45.1c0.5,21.8 -25.4,44.5 -45.1,45.1c-19.6,0.6 -32.9,-21 -40.4,-25.1c-7.5,-4.1 -9.2,9.1 -21.4,7.2c-12.2,-1.9 -34.9,-18.4 -35.5,-35.5zM642,524.4c0,-8 8,-16 16,-16c8,0 15.9,8 16,16c0,8 -7.9,16 -16,16c-8.1,0 -16,-8 -16,-16z" fill="#ff0000" opacity="0.5"/><path d="M544.5,441.5c7.4,18.6 11.5,38.4 17.6,57.5c5.8,18.1 12.4,36 17.3,54.4c1.2,4.5 6.3,-6.9 9.2,-10.5c8.8,-10.7 16.7,-22.3 22.8,-34.8c5.8,-12 10,-24.9 11.3,-38.2c0.1,-1.3 -7.2,-7.9 -8.2,-9.9c-0.2,-0.4 -2.2,-5.4 -1.7,-5.6c1.2,-0.4 0.7,2.5 1.2,3.7c1.1,2.3 2.6,4.4 4.4,6.2c1.3,1.3 4.1,5.6 4.4,3.7c0.6,-4.6 0.4,-9.2 0.1,-13.8c-0.3,-4.7 -6.7,-13.5 -2.1,-14c2.9,-0.3 4.3,28.1 4.3,28.1c0.1,24.7 -9.5,46.5 -21,67.7c-1,1.9 4.3,0.3 6.4,0.5c3.4,0.2 14.9,2.3 17.9,0.2c4,-2.8 19.9,-21.7 22.2,-24.7c11,-14 20.5,-29.4 26.7,-46.2c2.1,-5.6 -0.5,-19.1 5.2,-17.2c5.7,1.9 -2.2,11.9 -3.8,17.7c-4.9,17.6 -13.3,34 -23.3,49.2c-3.3,5.1 -7,10 -10.6,14.9c-0.9,1.3 -4.4,3 -3,3.8c5.6,3.2 13.9,-12.3 16,-9.5c1.4,1.9 -14.5,10.6 -15.6,11.1c-0.8,0.4 -1.7,0.3 -2.3,0.9c-11.1,10.9 -20.6,23.5 -31.9,34.3c-2.6,2.5 -21.7,19.4 -22.3,22.4c-1.5,7.8 1.7,15.7 2.4,23.6c0.9,10 1.6,20.1 2.2,30.1c0.6,10 7.7,22.2 1.5,30.1c-5.1,6.6 -19.7,6.5 -24.9,0c-6.2,-7.7 0.8,-19.8 1,-29.7c0.2,-9.9 0.4,-19.7 0.3,-29.6c-0.3,-36 -0.6,-77.1 -14.6,-111.1c-1.4,-3.4 -15.7,-6.5 -18.8,-7.8c-12.2,-5.1 -24.1,-11.3 -34.4,-19.7c0,0 -12,-10.3 -11.3,-11c3.5,-3.9 7.8,7 12.1,9.9c10.8,7.3 22.9,12.4 35.3,16.4c0.1,0 15.4,4.8 15.3,4.4c-3.8,-22.5 -7.1,-46.6 -16.2,-67.8c-0.6,-1.5 -10.7,-5.3 -12.5,-6c0,0 -6.9,1.3 -6.4,0c0.6,-1.9 7.1,1.2 5.9,-0.4c-0.5,-0.7 -10.5,-8.5 -8.8,-9.7c0.8,-0.6 1,1.6 1.6,2.4c1.8,2.3 4,4.1 6.4,5.6c0.9,0.6 2.6,2.6 2.8,1.5c0.6,-2.5 -5.3,-4.8 -3.8,-6.9c1.1,-1.5 4.6,7.3 4.6,7.3c1.2,0.8 2.7,1.2 4.1,1.6c1.7,0.6 5.4,3.4 5.1,1.6c-1.5,-7.8 -17.7,-40.2 -13.8,-41.8c9.2,-3.8 16.4,36.4 23.7,54.9zM583.1,574.4c0.5,0.5 5.5,-3.2 17.1,-12.6c4.8,-3.9 20.4,-17 25,-22c0.4,-0.4 -1.2,0.1 -1.8,0.2c-2.2,0.2 -4.3,0.4 -6.5,0.5c-11.7,0.6 -39.1,28.8 -33.9,34z" fill="#112233" opacity="0.5"/><path d="M532,414.2c4.3,9 8.6,18 12.4,27.3c3.8,9.3 7.1,18.9 9.8,28.7c2.7,9.7 4.8,19.5 7.8,28.8c3,9.3 7,18.2 10.3,27.7c2.9,8.5 5.1,17.6 7,26.7c0,0 0,0 0.1,-0.1c4,-3.2 6.4,-6.9 9.1,-10.5c2.7,-3.6 5.7,-7.3 8.5,-11c2.8,-3.8 5.3,-7.6 7.7,-11.6c2.4,-4 4.6,-8 6.7,-12.2c2,-4.2 3.9,-8.4 5.4,-12.8c1.6,-4.4 2.9,-8.8 3.9,-13.4c0.9,-4 1.6,-8 2,-12.1c-0.2,-0.2 -0.5,-0.6 -0.7,-0.8c-0.5,-0.5 -1,-0.9 -1.5,-1.3c-0.5,-0.4 -0.9,-0.9 -1.4,-1.4c-0.5,-0.5 -0.9,-1 -1.3,-1.5c-0.4,-0.5 -0.8,-1 -1.2,-1.5c-0.4,-0.5 -0.8,-1.1 -1.1,-1.6c-0.3,-0.6 -0.7,-1.1 -0.9,-1.7c-0.3,-0.6 -0.5,-1.2 -0.8,-1.8c-0.2,-0.6 -0.4,-1.2 -0.6,-1.9c-0.2,-0.6 -0.3,-1.3 -0.4,-1.9l0.5,1.9c0.2,0.6 0.4,1.2 0.7,1.8c0.3,0.6 0.6,1.2 0.9,1.7c0.3,0.5 0.7,1.1 1,1.6c0.4,0.5 0.8,1 1.2,1.5c0.4,0.5 0.9,0.9 1.3,1.4c0.4,0.4 0.9,0.9 1.4,1.3c0.5,0.4 1,0.8 1.5,1.2c0.5,0.4 0.9,0.8 1.5,1.2c0.4,-4.6 0.5,-9.2 0.1,-13.8c-0.4,-4.7 -1.2,-9.3 -2.1,-14l3.2,13.9c0.5,4.7 1,9.5 1.1,14.3c0.1,4.8 -0.3,9.6 -1,14.4c-0.7,4.8 -1.7,9.5 -2.9,14.1c-1.3,4.7 -2.8,9.2 -4.5,13.7c-1.7,4.5 -3.7,8.9 -5.9,13.2c-2.1,4.1 -4.3,8.2 -6.7,12.2c0,0 0,0 0,0c2.3,0.5 4.3,0.4 6.3,0.5c2.1,0.1 4.2,0.2 6.3,0.3c2.1,0.1 4.2,0.1 6.3,0.1c1.8,0 3.5,-0.1 5.3,-0.2c3.7,-3.6 7.2,-7.3 10.7,-11.1c4,-4.4 7.8,-8.9 11.5,-13.6c3.7,-4.7 7.2,-9.5 10.4,-14.5c3.3,-5 6.3,-10.1 9,-15.4c2.8,-5.3 5.3,-10.7 7.3,-16.3c2,-5.6 3.6,-11.4 5.2,-17.2l-3.8,17.7c-1.9,5.8 -3.7,11.5 -6,17.1c-2.3,5.6 -5,11.1 -7.9,16.4c-2.9,5.3 -6.1,10.6 -9.4,15.7c-3.3,5.1 -6.9,10 -10.6,14.9c-1,1.3 -2,2.5 -3,3.8c1.9,-0.6 3.8,-1.4 5.6,-2.3c1.9,-0.9 3.7,-2 5.4,-3.2c1.7,-1.2 3.3,-2.6 4.9,-4l-4.6,4.5c-1.7,1.3 -3.4,2.6 -5.3,3.7c-1.8,1.1 -3.8,2.1 -5.8,2.9c-0.8,0.3 -1.5,0.6 -2.3,0.9c-2.2,2.7 -4.4,5.3 -6.6,7.9c-4,4.6 -8.1,9 -12.3,13.5c-4.2,4.5 -8.5,9 -12.9,12.9c-4.4,3.9 -8.9,7.3 -13.4,12.4c-2.9,3.4 -5.9,7.6 -8.9,10c1.1,7.9 2,15.9 2.4,23.6c0.5,9.8 0.1,19.1 2.2,30.1c2.1,11 6.6,23.7 1.5,30.1c-5.1,6.3 -19.8,6.3 -24.9,0c-5.1,-6.3 -0.7,-18.8 1,-29.7c1.7,-10.8 0.7,-20 0.3,-29.6c-0.5,-9.6 -0.4,-19.6 -0.8,-29.5c-0.4,-9.9 -1.3,-19.7 -2.4,-29.3c-1.1,-9.6 -2.4,-19 -4.8,-28.6c-1.9,-7.8 -4.5,-15.7 -6.7,-23.7c-1.3,-0.6 -2.7,-1.4 -4,-2.1c-2.6,-1.3 -5,-1.9 -7.5,-2.8c-2.4,-0.8 -4.9,-1.9 -7.4,-3c-2.5,-1.1 -4.9,-2.1 -7.3,-3.2c-2.4,-1.1 -4.8,-2.3 -7.1,-3.5c-2.4,-1.2 -4.7,-2.5 -6.9,-3.9c-2.3,-1.4 -4.5,-2.8 -6.7,-4.3c-2.2,-1.5 -4.3,-3.1 -6.4,-4.8c-2.1,-1.7 -4.1,-3.4 -5.9,-5.2c-1.9,-1.8 -3.6,-3.8 -5.4,-5.7l5.8,5.3c2.1,1.6 4.1,3.2 6.3,4.7c2.1,1.5 4.4,2.8 6.6,4.1c2.3,1.3 4.6,2.5 6.9,3.7c2.3,1.1 4.7,2.2 7.1,3.2c2.4,1 4.8,2 7.3,2.9c2.4,0.9 4.9,1.8 7.4,2.6c2.5,0.8 5.1,1.5 7.5,2.3c2.4,0.8 4.7,1.7 7.5,2.1c0.1,0 0.2,0 0.3,0c-2,-9 -3.2,-18.2 -4.9,-27.1c-1.8,-9.7 -4.1,-19.2 -7.1,-28.6c-1.3,-4 -2.7,-8 -4.2,-12.1c-0.4,-0.2 -0.9,-0.5 -1.3,-0.7c-1,-0.5 -1.8,-0.7 -2.7,-1.1c-0.9,-0.3 -1.8,-0.7 -2.7,-1.2c-0.9,-0.4 -1.8,-0.8 -2.6,-1.3c-0.9,-0.4 -1.7,-0.9 -2.6,-1.4c-0.2,-0.1 -0.4,-0.2 -0.5,-0.3c-0.1,0 -0.1,0 -0.2,0c-0.3,0.1 -0.5,0.1 -0.7,0.2c-0.2,0.1 -0.5,0.1 -0.7,0.2c-0.2,0.1 -0.5,0.1 -0.7,0.1c-0.2,0 -0.5,0.1 -0.7,0.1c-0.2,0 -0.5,0 -0.7,0c-0.2,0 -0.5,0 -0.7,0c-0.2,0 -0.5,-0.1 -0.7,-0.1c-0.2,-0.1 -0.5,-0.1 -0.7,-0.2c-0.2,-0.1 -0.4,-0.2 -0.6,-0.3l0.7,0.3c0.2,0.1 0.5,0.1 0.7,0.1c0.2,0 0.5,0 0.7,0.1c0.2,0 0.5,0 0.7,0c0.2,0 0.5,-0.1 0.7,-0.1c0.2,0 0.5,-0.1 0.7,-0.1c0.2,-0.1 0.4,-0.1 0.7,-0.2c0.2,-0.1 0.4,-0.2 0.7,-0.2c0.2,-0.1 0.3,-0.1 0.5,-0.2c-0.5,-0.3 -0.9,-0.6 -1.3,-0.9c-0.8,-0.6 -1.5,-1.2 -2.3,-1.8c-0.7,-0.7 -1.4,-1.3 -2.1,-2.1c-0.6,-0.7 -1.2,-1.5 -1.8,-2.3c-0.5,-0.8 -1,-1.7 -1.4,-2.5l1.6,2.4c0.6,0.7 1.2,1.5 1.9,2.1c0.7,0.7 1.4,1.3 2.2,1.9c0.8,0.6 1.5,1.1 2.3,1.6c0.8,0.5 1.6,1 2.5,1.4c0.1,0.1 0.2,0.1 0.3,0.1c0,-0.3 -0.1,-0.5 -0.2,-0.7c-0.1,-0.3 -0.1,-0.6 -0.2,-0.9c-0.1,-0.3 -0.2,-0.6 -0.3,-0.9c-0.1,-0.3 -0.2,-0.6 -0.3,-0.9c-0.1,-0.3 -0.2,-0.6 -0.4,-0.8c-0.1,-0.3 -0.3,-0.5 -0.5,-0.8c-0.2,-0.3 -0.3,-0.5 -0.5,-0.7c-0.2,-0.2 -0.4,-0.5 -0.7,-0.6c-0.2,-0.2 -0.5,-0.3 -0.8,-0.5l0.8,0.4c0.2,0.2 0.5,0.4 0.7,0.6c0.2,0.2 0.4,0.5 0.6,0.7c0.2,0.2 0.4,0.5 0.5,0.8c0.2,0.3 0.3,0.5 0.5,0.8c0.1,0.3 0.3,0.6 0.4,0.9c0.1,0.3 0.2,0.6 0.3,0.9c0.1,0.3 0.2,0.6 0.3,0.9c0.1,0.3 0.1,0.6 0.3,0.9c0.1,0.1 0.1,0.3 0.2,0.4c0.5,0.2 0.9,0.4 1.4,0.6c0.9,0.4 1.7,0.7 2.7,1c0.9,0.3 1.8,0.6 2.7,0.9c0.8,0.3 1.5,0.6 2.4,0.7c-1.6,-4.4 -3.3,-8.8 -4.8,-13.2c-3.3,-9.4 -6.1,-19 -9,-28.6zM596.1,548.6c-2.8,3.8 -5.8,7 -8.6,11.7c-1.7,2.9 -3.4,6.3 -5.3,8.6c0.3,1.9 0.6,3.7 0.9,5.6c1,-0.5 2.1,-1.1 3.1,-1.6c5.7,-3.3 9.7,-7.2 14,-11c4.3,-3.8 9.1,-7.6 13.6,-11.5c3.9,-3.4 7.7,-6.9 11.4,-10.5c-0.6,0.1 -1.2,0.1 -1.8,0.2c-2.1,0.2 -4.3,0.3 -6.5,0.5c-2.2,0.1 -4.4,0.3 -6.4,0.2c-2.1,0 -4.1,-0.3 -6.4,0.1c-1,0.1 -2.1,0.4 -3.1,0.5c-1.6,2.6 -3.2,5.1 -5,7.4z" fill="#112233" opacity="0.8"/></g></svg>